<?xml version="1.0" encoding="UTF-8" standalone="no"?>
<!-- Created with Inkscape (http://www.inkscape.org/) -->

<svg
   width="320"
   height="320"
   viewBox="0 0 320 320"
   version="1.1"
   id="svg1"
   inkscape:version="1.3 (0e150ed6c4, 2023-07-21)"
   sodipodi:docname="favicon.svg"
   xmlns:inkscape="http://www.inkscape.org/namespaces/inkscape"
   xmlns:sodipodi="http://sodipodi.sourceforge.net/DTD/sodipodi-0.dtd"
   xmlns="http://www.w3.org/2000/svg"
   xmlns:svg="http://www.w3.org/2000/svg">
  <sodipodi:namedview
     id="namedview1"
     pagecolor="#ffffff"
     bordercolor="#000000"
     borderopacity="0.25"
     inkscape:showpageshadow="2"
     inkscape:pageopacity="0.0"
     inkscape:pagecheckerboard="0"
     inkscape:deskcolor="#d1d1d1"
     inkscape:document-units="px"
     showgrid="true"
     inkscape:zoom="1.150982"
     inkscape:cx="75.587629"
     inkscape:cy="215.46818"
     inkscape:window-width="1600"
     inkscape:window-height="842"
     inkscape:window-x="0"
     inkscape:window-y="0"
     inkscape:window-maximized="1"
     inkscape:current-layer="layer2">
    <inkscape:grid
       id="grid1"
       units="px"
       originx="0"
       originy="0"
       spacingx="1"
       spacingy="1"
       empcolor="#0099e5"
       empopacity="0.30196078"
       color="#0099e5"
       opacity="0.14901961"
       empspacing="5"
       dotted="false"
       gridanglex="30"
       gridanglez="30"
       visible="true" />
  </sodipodi:namedview>
  <defs
     id="defs1">
    <inkscape:path-effect
       effect="powermask"
       id="path-effect1"
       is_visible="true"
       lpeversion="1"
       uri="#mask-powermask-path-effect1"
       invert="false"
       hide_mask="false"
       background="true"
       background_color="#ffffffff" />
    <mask
       maskUnits="userSpaceOnUse"
       id="mask-powermask-path-effect1">
      <path
         id="mask-powermask-path-effect1_box"
         style="fill:#ffffff;fill-opacity:1"
         d="M -1,-1 H 321 V 321 H -1 Z" />
      <g
         inkscape:groupmode="layer"
         id="g1"
         inkscape:label="fg"
         transform="matrix(0.625,0,0,0.625,60,60)"
         style="">
        <circle
           style="fill:#000000;fill-opacity:1;stroke:none;stroke-width:51.2;stroke-linecap:round;stroke-linejoin:round;stroke-dasharray:none;stroke-opacity:1"
           id="circle1"
           cx="160"
           cy="160"
           r="32"
           inkscape:label="dot" />
        <path
           id="path1"
           style="display:inline;fill:none;fill-opacity:0.501961;stroke:#000000;stroke-width:64;stroke-linecap:round;stroke-linejoin:round;stroke-dasharray:none;stroke-opacity:1"
           d="m 320,160 v 0 C 320,248.36556 248.36556,320 160,320 71.63444,320 0,248.36556 0,160 0,71.63444 71.63444,0 160,0 c 44.18278,0 84.18278,17.90861 113.13709,46.862915 l -56.56855,56.568545"
           sodipodi:nodetypes="csscscc"
           inkscape:label="letter" />
      </g>
    </mask>
  </defs>
  <g
     inkscape:groupmode="layer"
     id="layer2"
     inkscape:label="bg"
     mask="url(#mask-powermask-path-effect1)"
     inkscape:path-effect="#path-effect1">
    <circle
       style="fill:#3b82f6;fill-opacity:0.50196081;stroke:none;stroke-width:64;stroke-linecap:round;stroke-linejoin:round;stroke-dasharray:none;stroke-opacity:1"
       id="path2"
       cx="160"
       cy="160"
       r="160"
       inkscape:label="lower"
       mask="none"
       clip-path="none"
       d="M 320,160 A 160,160 0 0 1 160,320 160,160 0 0 1 0,160 160,160 0 0 1 160,0 160,160 0 0 1 320,160 Z" />
    <circle
       style="fill:#1e40af;fill-opacity:0.50196081;stroke:none;stroke-width:56;stroke-linecap:round;stroke-linejoin:round;stroke-dasharray:none;stroke-opacity:1"
       id="circle2"
       cx="160"
       cy="160"
       r="140"
       inkscape:label="upper"
       mask="none"
       clip-path="none"
       d="M 300,160 A 140,140 0 0 1 160,300 140,140 0 0 1 20,160 140,140 0 0 1 160,20 140,140 0 0 1 300,160 Z" />
  </g>
</svg>
